<?xml version="1.0" encoding="iso-8859-1"?>
<!-- Generator: Adobe Illustrator 19.0.0, SVG Export Plug-In . SVG Version: 6.00 Build 0)  -->
<svg version="1.1" id="Capa_1" xmlns="http://www.w3.org/2000/svg" xmlns:xlink="http://www.w3.org/1999/xlink" x="0px" y="0px"
	 viewBox="0 0 511.999 511.999" style="enable-background:new 0 0 511.999 511.999;" xml:space="preserve">
<g>
	<g>
		<path d="M416.323,0H95.677C82.702,0,72.145,10.557,72.145,23.532v432.871c0,12.976,10.557,23.532,23.532,23.532h0.516v16.548
			c0,8.556,6.96,15.516,15.516,15.516h16.032c8.556,0,15.517-6.96,15.517-15.516v-16.548h225.483v16.548
			c0,8.556,6.961,15.516,15.517,15.516h16.032c8.556,0,15.516-6.96,15.516-15.516v-16.548h0.516
			c12.976,0,23.532-10.557,23.532-23.532V23.532C439.855,10.557,429.298,0,416.323,0z M87.145,47.064h289.093
			c4.142,0,7.5-3.358,7.5-7.5c0-4.142-3.358-7.5-7.5-7.5H87.145v-8.532c0-4.704,3.828-8.532,8.532-8.532h320.646
			c4.705,0,8.532,3.828,8.532,8.532v8.532h-16.553c-4.142,0-7.5,3.358-7.5,7.5c0,4.142,3.358,7.5,7.5,7.5h16.553v89.21H87.145
			V47.064z M376.758,151.791v16.032c0,0.285-0.232,0.516-0.517,0.516H135.758c-0.285,0-0.517-0.231-0.517-0.516v-16.032
			c0-0.285,0.232-0.516,0.517-0.516h240.483C376.526,151.274,376.758,151.506,376.758,151.791z M128.258,496.484
			c0,0.285-0.232,0.516-0.517,0.516h-16.032c-0.285,0-0.516-0.231-0.516-0.516v-16.548h17.065V496.484z M400.807,496.484
			c0,0.285-0.231,0.516-0.516,0.516h-16.032c-0.285,0-0.517-0.231-0.517-0.516v-16.548h17.065V496.484z M424.856,400.806H135.762
			c-4.142,0-7.5,3.358-7.5,7.5c0,4.142,3.358,7.5,7.5,7.5h289.093v40.597c0,4.705-3.828,8.533-8.532,8.533H95.677
			c-4.705,0-8.532-3.828-8.532-8.532v-40.597h16.553c4.142,0,7.5-3.358,7.5-7.5c0-4.142-3.358-7.5-7.5-7.5H87.145V151.274h33.123
			c-0.006,0.173-0.026,0.342-0.026,0.516v16.032c0,8.556,6.961,15.516,15.517,15.516h240.483c8.556,0,15.517-6.96,15.517-15.516
			V151.79c0-0.174-0.02-0.343-0.026-0.516h33.123V400.806z"/>
	</g>
</g>
<g>
	<g>
		<path d="M292.073,64.129c-15.186,0-27.541,12.354-27.541,27.541c0,15.186,12.354,27.54,27.541,27.54
			c15.186,0,27.54-12.354,27.54-27.54C319.613,76.483,307.258,64.129,292.073,64.129z M292.073,104.209
			c-6.915,0-12.541-5.625-12.541-12.54c0-6.915,5.625-12.541,12.541-12.541c6.915,0,12.54,5.625,12.54,12.541
			C304.613,98.584,298.987,104.209,292.073,104.209z"/>
	</g>
</g>
<g>
	<g>
		<path d="M364.218,64.129c-15.186,0-27.541,12.354-27.541,27.541c0,15.186,12.354,27.54,27.541,27.54s27.541-12.354,27.541-27.54
			C391.758,76.483,379.404,64.129,364.218,64.129z M364.218,104.209c-6.915,0-12.541-5.625-12.541-12.54
			c0-6.915,5.625-12.541,12.541-12.541s12.541,5.625,12.541,12.541C376.758,98.584,371.133,104.209,364.218,104.209z"/>
	</g>
</g>
<g>
	<g>
		<path d="M147.782,64.129c-15.186,0-27.541,12.354-27.541,27.541c0,15.186,12.354,27.54,27.541,27.54
			c15.187,0,27.541-12.354,27.541-27.54C175.323,76.483,162.968,64.129,147.782,64.129z M147.782,104.209
			c-6.915,0-12.541-5.625-12.541-12.54c0-6.915,5.625-12.541,12.541-12.541c6.916,0,12.541,5.625,12.541,12.541
			C160.323,98.584,154.697,104.209,147.782,104.209z"/>
	</g>
</g>
<g>
	<g>
		<path d="M219.927,64.129c-15.186,0-27.54,12.354-27.54,27.541c0,15.186,12.354,27.54,27.54,27.54
			c15.186,0,27.541-12.354,27.541-27.54C247.468,76.483,235.113,64.129,219.927,64.129z M219.927,104.209
			c-6.915,0-12.54-5.625-12.54-12.54c0-6.915,5.625-12.541,12.54-12.541s12.541,5.625,12.541,12.541
			C232.468,98.584,226.842,104.209,219.927,104.209z"/>
	</g>
</g>
<g>
	<g>
		<path d="M376.242,200.403H135.758c-8.556,0-15.517,6.96-15.517,15.516v152.306c0,8.556,6.961,15.516,15.517,15.516h240.484v0.001
			c8.556,0,15.517-6.96,15.517-15.516V215.919C391.759,207.363,384.798,200.403,376.242,200.403z M376.759,368.225
			c0,0.285-0.232,0.516-0.517,0.516H135.758c-0.284,0.001-0.516-0.231-0.516-0.515V215.919c0-0.285,0.232-0.516,0.517-0.516h240.483
			c0.285,0,0.517,0.231,0.517,0.516V368.225z"/>
	</g>
</g>
<g>
	<g>
		<path d="M352.194,312.629H159.807c-4.142,0-7.5,3.358-7.5,7.5c0,4.142,3.358,7.5,7.5,7.5h192.387c4.142,0,7.5-3.358,7.5-7.5
			C359.694,315.987,356.336,312.629,352.194,312.629z"/>
	</g>
</g>
<g>
	<g>
		<path d="M352.194,256.516H159.807c-4.142,0-7.5,3.358-7.5,7.5c0,4.142,3.358,7.5,7.5,7.5h192.387c4.142,0,7.5-3.358,7.5-7.5
			C359.694,259.874,356.336,256.516,352.194,256.516z"/>
	</g>
</g>
<g>
</g>
<g>
</g>
<g>
</g>
<g>
</g>
<g>
</g>
<g>
</g>
<g>
</g>
<g>
</g>
<g>
</g>
<g>
</g>
<g>
</g>
<g>
</g>
<g>
</g>
<g>
</g>
<g>
</g>
</svg>
