<?xml version="1.0" encoding="iso-8859-1"?>
<!-- Generator: Adobe Illustrator 19.0.0, SVG Export Plug-In . SVG Version: 6.00 Build 0)  -->
<svg version="1.1" id="Capa_1" xmlns="http://www.w3.org/2000/svg" xmlns:xlink="http://www.w3.org/1999/xlink" x="0px" y="0px"
	 viewBox="0 0 480 480" style="enable-background:new 0 0 480 480;" xml:space="preserve">
<g>
	<g>
		<g>
			<path d="M400,352h16v-16H304v16h16v16H160v-16h16v-16H64v16h16v16H0v48h16v64h16v-64h416v64h16v-64h16v-48h-80V352z M336,352h48
				v16h-48V352z M96,352h48v16H96V352z M464,384v16H16v-16H464z"/>
			<path d="M120,424c-13.255,0-24,10.745-24,24s10.745,24,24,24s24-10.745,24-24S133.255,424,120,424z M120,456
				c-4.418,0-8-3.582-8-8s3.582-8,8-8s8,3.582,8,8S124.418,456,120,456z"/>
			<path d="M360,424c-13.255,0-24,10.745-24,24s10.745,24,24,24s24-10.745,24-24S373.255,424,360,424z M360,456
				c-4.418,0-8-3.582-8-8s3.582-8,8-8s8,3.582,8,8S364.418,456,360,456z"/>
			<polygon points="145.6,251.192 126,277.312 142,298.656 129.6,315.2 142.4,324.8 162,298.656 146,277.312 158.4,260.808 			"/>
			<polygon points="105.6,251.192 86,277.312 102,298.656 89.6,315.2 102.4,324.8 122,298.656 106,277.312 118.4,260.808 			"/>
			<polygon points="337.6,251.192 318,277.312 334,298.656 321.6,315.2 334.4,324.8 354,298.656 338,277.312 350.4,260.808 			"/>
			<polygon points="377.6,251.192 358,277.312 374,298.656 361.6,315.2 374.4,324.8 394,298.656 378,277.312 390.4,260.808 			"/>
			<path d="M464,128v-11.312L395.312,48H304V0H176v48H84.688L16,116.688V128H0v48h480v-48H464z M192,16h96v32h-96V16z M32,123.312
				L91.312,64h297.376L448,123.312V128H32V123.312z M464,160H16v-16h448V160z"/>
		</g>
	</g>
</g>
<g>
</g>
<g>
</g>
<g>
</g>
<g>
</g>
<g>
</g>
<g>
</g>
<g>
</g>
<g>
</g>
<g>
</g>
<g>
</g>
<g>
</g>
<g>
</g>
<g>
</g>
<g>
</g>
<g>
</g>
</svg>
